<svg id="Layer_1" data-name="Layer 1" xmlns="http://www.w3.org/2000/svg" viewBox="0 0 392.24 534.25"><defs><style>.cls-1{fill:none;stroke:#fff;stroke-miterlimit:10;stroke-width:12px;}.cls-2{fill:#f44336;}</style></defs><title>logo</title><path class="cls-1" d="M267.67,94.83C285,88,318,95.09,354,112.72s66,40.46,66,55.4" transform="translate(-74.15 -30.64)"/><path class="cls-2" d="M398,57.35c-16.39,47.15-54.62,140.44-52.5,168,.07.92.08-.92,0,0-2.88,33.67-39.51,67-69.5,39.33-30.41-28.08-37.23-73.09-34.67-93.33S203.89,193,201.69,197.75s-35.8,78.78,24.57,126.74c50.54,40.16,107.56,12.21,129.12-9.86s36.35-78.29,37.38-127c.76-36.06,14.29-60.74,27.23-87.1,13.5-27.5,50.59-41.1,46-54l.39-10.5C455,26.88,408.67,26.67,398,57.35Z" transform="translate(-74.15 -30.64)"/><path class="cls-1" d="M271.36,92.18S226.18,143,198.11,200.68s16.4,124.43,43.81,135.58l.09,0c25.45,14.58,107,6.15,135.11-51.48s43.57-119.42,43.57-119.42" transform="translate(-74.15 -30.64)"/><path class="cls-1" d="M420.49,164.68c-19.34-5.1-51.6-7.07-82.31-19.76-36.2-15-63.24-38.18-67.66-49.12" transform="translate(-74.15 -30.64)"/><path class="cls-1" d="M261.62,342.21s-10.68,3-15.4,9.52S173,500,173,500l19.84,52.37L91.21,499.83l56.12-13.5h0s74.41-137.93,76.95-145.6-1.34-18.06-1.34-18.06" transform="translate(-74.15 -30.64)"/></svg>