<svg id="Layer_1" data-name="Layer 1" xmlns="http://www.w3.org/2000/svg" viewBox="0 0 337.59 576"><defs><style>.cls-1{fill:#eee;}.cls-2{fill:#f5f5f5;}.cls-3{fill:#ef4438;}</style></defs><title>Artboard 1vector</title><rect class="cls-1" x="141.92" y="312.2" width="35.3" height="196.23"/><path class="cls-2" d="M276.13,36.56c1.1,6.42,0,153.66,0,160.39a116.58,116.58,0,1,1-233.15,0c0-6.57-1-154.12,0-160.39"/><path class="cls-1" d="M253.67,36.56c.88,5.84,0,139.8,0,145.92,0,58.57-42.14,106.06-94.11,106.06S65.44,241.05,65.44,182.48c0-6-.84-140.21,0-145.92"/><rect class="cls-2" x="144.16" y="415.95" width="30.82" height="215.79" rx="15.41" ry="15.41" transform="translate(-364.27 683.41) rotate(-90)"/><path class="cls-3" d="M253.68,162.55c.88,5.84,0,13.81,0,19.93,0,58.57-42.14,106.06-94.11,106.06S65.44,241.05,65.44,182.48c0-6-.84-14.22,0-19.93"/></svg>