<svg id="Layer_1" data-name="Layer 1" xmlns="http://www.w3.org/2000/svg" viewBox="0 0 246.24 370.8"><defs><style>.cls-1{fill:#e0e0e0;}.cls-2{fill:#9e9d9e;}.cls-3{fill:#bdbdbd;}.cls-4{fill:#757576;}</style></defs><title>Artboard 2greyscale</title><rect class="cls-1" x="-3.21" y="-1.38" width="249.45" height="372.18"/><rect class="cls-2" x="120.27" y="200.72" width="11.46" height="36.82"/><path class="cls-3" d="M163.84,111.25c.36,2.08,0,49.88,0,52.06a37.84,37.84,0,1,1-75.68,0c0-2.13-.34-50,0-52.06"/><path class="cls-2" d="M156.55,111.25c.29,1.9,0,45.38,0,47.36,0,19-13.68,34.43-30.55,34.43s-30.55-15.41-30.55-34.43c0-1.94-.27-45.51,0-47.36"/><rect class="cls-3" x="121" y="207.52" width="10" height="70.04" rx="5" ry="5" transform="translate(-116.53 368.54) rotate(-90)"/><path class="cls-4" d="M156.55,152.14a48.63,48.63,0,0,1,0,6.47c0,19-13.68,34.43-30.55,34.43s-30.55-15.41-30.55-34.43a51,51,0,0,1,0-6.47"/></svg>